<svg xmlns="http://www.w3.org/2000/svg" viewBox="0 0 48 48" role="img" aria-labelledby="title">
  <title id="title">WhatsApp</title>
  <circle cx="24" cy="24" r="22" fill="#68C82C"/>
  <path fill="#FFFFFF" d="M35.7 12.2A16.4 16.4 0 0 0 9.9 31.9L7.6 40.5l8.8-2.3a16.4 16.4 0 0 0 19.3-26zm-11.6 23a13 13 0 0 1-6.6-1.8l-.5-.3-5.2 1.4 1.4-5.1-.3-.5a13 13 0 1 1 11.2 6.3z"/>
  <path fill="#FFFFFF" d="M31.3 27.6c-.4-.2-2.5-1.2-2.9-1.4-.4-.1-.7-.2-1 .2-.3.5-1.1 1.4-1.4 1.7-.3.3-.5.4-1 .1-2.7-1.3-4.5-2.4-6.3-5.5-.5-.8.5-.8 1.3-2.6.1-.3 0-.6-.1-.8l-1.3-3.2c-.3-.8-.7-.7-1-.7h-.8c-.3 0-.8.1-1.2.6-.4.5-1.6 1.6-1.6 3.9s1.7 4.5 1.9 4.8c.2.3 3.3 5 8 7 3 .9 4.2.8 5.8.5.9-.1 2.5-1 2.8-2 .4-1 .4-1.9.3-2.1-.2-.2-.5-.3-.9-.5z"/>
</svg>
